<svg xmlns="http://www.w3.org/2000/svg" xmlns:xlink="http://www.w3.org/1999/xlink" fill="none" version="1.1" width="32" height="32" viewBox="0 0 32 32"><defs><clipPath id="master_svg0_1_535"><rect x="7.25" y="9" width="17.5" height="14" rx="0"/></clipPath></defs><g><rect x="0" y="0" width="32" height="32" rx="16" fill="#90ee904d" fill-opacity="1" style="mix-blend-mode:passthrough"/><g><rect x="7.25" y="6" width="17.5" height="20" rx="0" fill="#000000" fill-opacity="0" style="mix-blend-mode:passthrough"/><g clip-path="url(#master_svg0_1_535)"><g transform="matrix(1,0,0,-1,0,46.6015625)"><g><path d="M16,37.30078125Q16.38281,37.30078125,16.628909999999998,37.05468125Q16.875,36.80858125,16.875,36.42578125L16.875,34.67578125L20.1562,34.67578125Q21.0039,34.64848125,21.550800000000002,34.10158125Q22.0977,33.55468125,22.125,32.70703125L22.125,25.26953125Q22.0977,24.42187125,21.550800000000002,23.87500025Q21.0039,23.32812505,20.1562,23.30078125L11.84375,23.30078125Q10.99609,23.32812505,10.44922,23.87500025Q9.90234,24.42187125,9.875,25.26953125L9.875,32.70703125Q9.90234,33.55468125,10.44922,34.10158125Q10.99609,34.64848125,11.84375,34.67578125L15.125,34.67578125L15.125,36.42578125Q15.125,36.80858125,15.37109,37.05468125Q15.61719,37.30078125,16,37.30078125ZM12.9375,26.80078125Q12.527339999999999,26.77344125,12.5,26.36328125Q12.527339999999999,25.95312125,12.9375,25.92578125L13.8125,25.92578125Q14.222660000000001,25.95312125,14.25,26.36328125Q14.222660000000001,26.77344125,13.8125,26.80078125L12.9375,26.80078125ZM15.5625,26.80078125Q15.152339999999999,26.77344125,15.125,26.36328125Q15.152339999999999,25.95312125,15.5625,25.92578125L16.4375,25.92578125Q16.847659999999998,25.95312125,16.875,26.36328125Q16.847659999999998,26.77344125,16.4375,26.80078125L15.5625,26.80078125ZM18.1875,26.80078125Q17.7773,26.77344125,17.75,26.36328125Q17.7773,25.95312125,18.1875,25.92578125L19.0625,25.92578125Q19.4727,25.95312125,19.5,26.36328125Q19.4727,26.77344125,19.0625,26.80078125L18.1875,26.80078125ZM14.46875,30.30078125Q14.441410000000001,30.92969125,13.92188,31.25781125Q13.375,31.53125125,12.82812,31.25781125Q12.308589999999999,30.92969125,12.28125,30.30078125Q12.308589999999999,29.67187125,12.82812,29.34375125Q13.375,29.07031125,13.92188,29.34375125Q14.441410000000001,29.67187125,14.46875,30.30078125ZM18.625,29.20703125Q19.2539,29.23437125,19.582,29.75390125Q19.8555,30.30078125,19.582,30.84766125Q19.2539,31.367191249999998,18.625,31.39453125Q17.9961,31.367191249999998,17.668,30.84766125Q17.3945,30.30078125,17.668,29.75390125Q17.9961,29.23437125,18.625,29.20703125ZM8.5625,31.17578125L9,31.17578125L8.5625,31.17578125L9,31.17578125L9,25.92578125L8.5625,25.92578125Q8.015625,25.95312125,7.632812,26.30859125Q7.2773438,26.69140125,7.25,27.23828125L7.25,29.86328125Q7.2773438,30.41016125,7.632812,30.79297125Q8.015625,31.14844125,8.5625,31.17578125ZM23.4375,31.17578125Q23.9844,31.14844125,24.3672,30.79297125Q24.7227,30.41016125,24.75,29.86328125L24.75,27.23828125Q24.7227,26.69140125,24.3672,26.30859125Q23.9844,25.95312125,23.4375,25.92578125L23,25.92578125L23,31.17578125L23.4375,31.17578125Z" fill="#90EE90" fill-opacity="1" style="mix-blend-mode:passthrough"/></g></g></g></g></g></svg>