<svg xmlns="http://www.w3.org/2000/svg" xmlns:xlink="http://www.w3.org/1999/xlink" fill="none" version="1.1" width="32" height="32" viewBox="0 0 32 32"><defs><clipPath id="master_svg0_1_463"><rect x="9.875" y="9" width="12.25" height="14" rx="0"/></clipPath></defs><g><rect x="0" y="0" width="32" height="32" rx="16" fill="#2A3D63" fill-opacity="1" style="mix-blend-mode:passthrough"/><g><rect x="9.875" y="6" width="12.25" height="20" rx="0" fill="#000000" fill-opacity="0" style="mix-blend-mode:passthrough"/><g clip-path="url(#master_svg0_1_463)"><g transform="matrix(1,0,0,-1,0,46.6015625)"><g><path d="M16,30.30078125Q16.95703,30.30078125,17.75,30.76562125Q18.54297,31.23047125,19.035159999999998,32.05078125Q19.5,32.87109125,19.5,33.80078125Q19.5,34.73048125,19.035159999999998,35.55078125Q18.54297,36.37108125,17.75,36.83598125Q16.95703,37.30078125,16,37.30078125Q15.04297,37.30078125,14.25,36.83598125Q13.45703,36.37108125,12.96484,35.55078125Q12.5,34.73048125,12.5,33.80078125Q12.5,32.87109125,12.96484,32.05078125Q13.45703,31.23047125,14.25,30.76562125Q15.04297,30.30078125,16,30.30078125ZM14.74219,28.98828125Q12.69141,28.93359125,11.29688,27.56640125Q9.9296875,26.17187125,9.875,24.12109325Q9.875,23.76562525,10.121094,23.54687525Q10.339844,23.30078125,10.695312,23.30078125L21.3047,23.30078125Q21.6602,23.30078125,21.8789,23.54687525Q22.125,23.76562525,22.125,24.12109325Q22.0703,26.17187125,20.7031,27.56640125Q19.308590000000002,28.93359125,17.25781,28.98828125L14.74219,28.98828125Z" fill="#5897E2" fill-opacity="1" style="mix-blend-mode:passthrough"/></g></g></g></g></g></svg>